<svg xmlns="http://www.w3.org/2000/svg" xmlns:xlink="http://www.w3.org/1999/xlink" width="193" height="51" viewBox="0 0 193 51"><defs><path id="689ha" d="M71.634 1000.145c0 2.405.754 3.404 3.309 3.404 2.548 0 3.283-1 3.283-3.404V992h3.086v8.219c0 1.742-.203 2.935-.857 3.654-1.208 1.327-2.964 1.876-5.512 1.876-2.555 0-4.325-.549-5.531-1.876-.677-.737-.842-1.932-.842-3.654V992h3.064z"/><path id="689hb" d="M91.386 992l6.254 13.601h-3.434l-1.347-3.24h-6.375l-1.306 3.24H81.91L88.115 992zm-3.9 7.94h4.372l-2.228-5.228z"/><path id="689hc" d="M99.043 992l3.39 10.455L105.294 992h3.632l3.289 10.455 3.16-10.455h3.17l-4.537 13.601h-3.773l-3.126-10.154-2.735 10.154h-3.761L95.73 992z"/><path id="689hd" d="M122.69 997.53h8.539v2.364h-8.562c.024 2.447 1.064 3.338 3.493 3.338h5.069v2.369h-5.214c-1.771 0-3.142-.134-4.576-1.194-1.506-1.118-2.239-2.901-2.239-5.361 0-4.804 2.184-7.046 6.9-7.046h5.129v2.369h-5.07c-2.224 0-3.342 1.025-3.468 3.161"/><path id="689he" d="M133.95 1005.601h3.224V992h-3.224z"/><path id="689hf" d="M56.087 997.51h6.864V992h3.085v13.601H62.95v-5.683h-6.864v5.683H53V992h3.087z"/><path id="689hg" d="M74.862 1041.756v-20.899l-7.47 20.9h-3.375l-7.504-20.9v20.9H53.17v-23.667h5.594l7.027 19.443 6.957-19.443h5.626v23.666z"/><path id="689hh" d="M84.543 1033.81c0 .827.12 1.595.36 2.303a5.325 5.325 0 0 0 1.04 1.847c.453.52 1.009.935 1.67 1.24.658.31 1.398.463 2.216.463.772 0 1.619-.108 2.54-.32.92-.212 1.723-.52 2.406-.923l.205 2.767a13.49 13.49 0 0 1-2.797.729c-1 .153-1.968.23-2.9.23-1.41 0-2.631-.225-3.664-.673a6.796 6.796 0 0 1-2.577-1.918c-.682-.826-1.188-1.808-1.516-2.944-.33-1.135-.496-2.401-.496-3.795 0-1.208.184-2.366.545-3.478.364-1.113.876-2.089 1.536-2.928a7.355 7.355 0 0 1 2.421-2.004c.955-.498 2.023-.746 3.205-.746 1.274 0 2.36.237 3.257.71a6.2 6.2 0 0 1 2.218 1.95c.58.83 1 1.793 1.262 2.892.261 1.101.391 2.277.391 3.531v1.066zm8.048-2.202c0-.637-.063-1.282-.187-1.934a5.902 5.902 0 0 0-.631-1.774 3.714 3.714 0 0 0-1.178-1.294c-.488-.331-1.096-.497-1.823-.497-.729 0-1.358.177-1.892.533a4.48 4.48 0 0 0-1.33 1.366 6.342 6.342 0 0 0-.784 1.79 6.945 6.945 0 0 0-.256 1.81z"/><path id="689hi" d="M111.048 1041.752l-.206-2.944c-.523 1.136-1.248 1.975-2.181 2.519s-1.99.817-3.172.817c-1.296 0-2.387-.265-3.274-.798a6.658 6.658 0 0 1-2.182-2.112c-.57-.875-.978-1.869-1.23-2.98a15.661 15.661 0 0 1-.373-3.441c0-1.183.124-2.328.374-3.425.251-1.1.66-2.077 1.23-2.929a6.447 6.447 0 0 1 2.18-2.04c.888-.508 1.98-.762 3.275-.762 1.07 0 2.087.284 3.053.852.967.567 1.666 1.383 2.1 2.449v-10.788h3.407v20.26c0 .994.019 1.923.052 2.787.034.86.074 1.708.12 2.535zm-.306-8.903c0-.71-.074-1.442-.223-2.2a7.5 7.5 0 0 0-.73-2.092 4.523 4.523 0 0 0-1.348-1.56c-.559-.403-1.247-.605-2.065-.605-.887 0-1.603.196-2.148.585-.547.391-.979.9-1.297 1.526a6.782 6.782 0 0 0-.649 2.093c-.113.77-.17 1.52-.17 2.253 0 .733.063 1.483.189 2.253.124.767.345 1.47.664 2.11a4.36 4.36 0 0 0 1.313 1.578c.558.413 1.267.62 2.131.62.82 0 1.506-.213 2.065-.637a4.912 4.912 0 0 0 1.347-1.597c.343-.638.58-1.341.715-2.11.138-.768.206-1.508.206-2.217z"/><path id="689hj" d="M133.828 1041.755l-.103-2.802a5.75 5.75 0 0 1-2.25 2.34 6.084 6.084 0 0 1-3.105.852 7.71 7.71 0 0 1-2.182-.301 5.097 5.097 0 0 1-1.79-.921 4.495 4.495 0 0 1-1.226-1.582c-.308-.637-.462-1.394-.462-2.27 0-1.158.243-2.134.733-2.926a5.531 5.531 0 0 1 1.996-1.916c.84-.484 1.823-.834 2.951-1.047a19.116 19.116 0 0 1 3.563-.32h.818c.32 0 .602.01.853.034v-.742c0-1.301-.312-2.295-.939-2.982-.623-.685-1.607-1.028-2.95-1.028-.864 0-1.72.112-2.575.337a8.442 8.442 0 0 0-2.437 1.082l-.206-2.733c.795-.33 1.7-.609 2.711-.834 1.013-.224 1.949-.336 2.814-.336 2.205 0 3.912.525 5.118 1.578 1.203 1.054 1.807 2.774 1.807 5.163v7.415a32.819 32.819 0 0 0 .204 3.94zm-.204-8.693h-.548c-.678 0-1.432.03-2.247.09a8.3 8.3 0 0 0-2.287.477c-.706.262-1.292.645-1.755 1.153-.468.511-.702 1.202-.702 2.075 0 .97.32 1.681.956 2.13.636.45 1.377.676 2.219.676.817 0 1.504-.155 2.06-.462a3.752 3.752 0 0 0 1.35-1.241 5.4 5.4 0 0 0 .731-1.793c.148-.674.223-1.39.223-2.147z"/><path id="689hk" d="M154.87 1025.114c0 1.231-.204 2.296-.612 3.193-.409.899-.958 1.645-1.65 2.236a6.93 6.93 0 0 1-2.414 1.33 9.402 9.402 0 0 1-2.909.444h-3.84v9.44h-3.685v-23.667h7.64c1.046 0 2.03.147 2.95.443.92.295 1.71.74 2.37 1.331.66.591 1.183 1.325 1.57 2.198.385.877.58 1.893.58 3.052m-3.786.053c0-1.473-.437-2.553-1.308-3.242-.87-.689-1.963-1.033-3.274-1.033h-3.058v8.623h1.732a19.2 19.2 0 0 0 2.19-.125c.712-.083 1.345-.273 1.901-.57a3.319 3.319 0 0 0 1.327-1.319c.327-.582.49-1.36.49-2.334"/><path id="689hl" d="M165.787 1041.755l-.104-2.802a5.743 5.743 0 0 1-2.25 2.34 6.083 6.083 0 0 1-3.105.852c-.773 0-1.5-.101-2.181-.301a5.076 5.076 0 0 1-1.789-.921 4.502 4.502 0 0 1-1.23-1.582c-.306-.637-.458-1.394-.458-2.27 0-1.158.243-2.134.732-2.926a5.539 5.539 0 0 1 1.994-1.916c.842-.484 1.825-.834 2.95-1.047a19.162 19.162 0 0 1 3.567-.32h.815c.32 0 .603.01.853.034v-.742c0-1.301-.313-2.295-.938-2.982-.623-.685-1.606-1.028-2.95-1.028-.864 0-1.721.112-2.573.337a8.46 8.46 0 0 0-2.44 1.082l-.204-2.733c.795-.33 1.7-.609 2.712-.834 1.01-.224 1.949-.336 2.812-.336 2.207 0 3.912.525 5.117 1.578 1.204 1.054 1.807 2.774 1.807 5.163v7.415c0 .759.02 1.45.05 2.077.035.626.087 1.249.154 1.862zm-.204-8.693h-.546c-.68 0-1.434.03-2.25.09a8.31 8.31 0 0 0-2.287.477c-.707.262-1.292.645-1.758 1.153-.465.511-.701 1.202-.701 2.075 0 .97.319 1.681.958 2.13.637.45 1.375.676 2.218.676.818 0 1.506-.155 2.064-.462a3.744 3.744 0 0 0 1.349-1.241 5.37 5.37 0 0 0 .733-1.793c.148-.674.22-1.39.22-2.147z"/><path id="689hm" d="M223.08 1041.82v-21.19l-8.275 21.19h-2.7l-8.272-21.19v21.19h-2.593v-23.48h4.275l8.029 20.382 7.958-20.382h4.277v23.48z"/><path id="689hn" d="M245.303 1034.393c0 1.268-.232 2.39-.7 3.362a7.007 7.007 0 0 1-1.91 2.444 8.479 8.479 0 0 1-2.804 1.498c-1.065.34-2.193.51-3.385.51a22.09 22.09 0 0 1-2.734-.175c-.932-.119-1.809-.34-2.63-.669l.21-2.57a9.035 9.035 0 0 0 2.42.845c.84.164 1.695.246 2.559.246.82 0 1.597-.11 2.333-.334a5.77 5.77 0 0 0 1.944-1.003 4.963 4.963 0 0 0 1.35-1.673c.338-.669.508-1.437.508-2.306 0-.89-.15-1.648-.455-2.27a4.2 4.2 0 0 0-1.246-1.532 5.242 5.242 0 0 0-1.839-.878 8.738 8.738 0 0 0-2.28-.282c-.747 0-1.514.07-2.296.21-.783.141-1.664.376-2.646.704l.245-12.18h12.235v2.253h-9.675l-.209 7.324a7.159 7.159 0 0 1 1.647-.37c.56-.06 1.122-.09 1.682-.09 1.052 0 2.046.147 2.98.44a7.094 7.094 0 0 1 2.454 1.32 6.146 6.146 0 0 1 1.647 2.185c.397.867.595 1.864.595 2.991"/></defs><g><g transform="translate(-53 -992)"><use fill="#fefefe" xlink:href="#689ha"/></g><g transform="translate(-53 -992)"><use fill="#fefefe" xlink:href="#689hb"/></g><g transform="translate(-53 -992)"><use fill="#fefefe" xlink:href="#689hc"/></g><g transform="translate(-53 -992)"><use fill="#fefefe" xlink:href="#689hd"/></g><g clip-path="url(#clip-F1ADDC2E-FE66-45C2-A410-D52A6D343947)" transform="translate(-53 -992)"><use fill="#fefefe" xlink:href="#689he"/></g><g clip-path="url(#clip-F1ADDC2E-FE66-45C2-A410-D52A6D343947)" transform="translate(-53 -992)"><use fill="#fefefe" xlink:href="#689hf"/></g><g clip-path="url(#clip-F1ADDC2E-FE66-45C2-A410-D52A6D343947)" transform="translate(-53 -992)"><use fill="#fefefe" xlink:href="#689hg"/></g><g clip-path="url(#clip-F1ADDC2E-FE66-45C2-A410-D52A6D343947)" transform="translate(-53 -992)"><use fill="#fefefe" xlink:href="#689hh"/></g><g clip-path="url(#clip-F1ADDC2E-FE66-45C2-A410-D52A6D343947)" transform="translate(-53 -992)"><use fill="#fefefe" xlink:href="#689hi"/></g><g clip-path="url(#clip-F1ADDC2E-FE66-45C2-A410-D52A6D343947)" transform="translate(-53 -992)"><use fill="#fefefe" xlink:href="#689hj"/></g><g clip-path="url(#clip-F1ADDC2E-FE66-45C2-A410-D52A6D343947)" transform="translate(-53 -992)"><use fill="#fefefe" xlink:href="#689hk"/></g><g clip-path="url(#clip-F1ADDC2E-FE66-45C2-A410-D52A6D343947)" transform="translate(-53 -992)"><use fill="#fefefe" xlink:href="#689hl"/></g><g clip-path="url(#clip-F1ADDC2E-FE66-45C2-A410-D52A6D343947)" transform="translate(-53 -992)"><use fill="#fefefe" xlink:href="#689hm"/></g><g clip-path="url(#clip-F1ADDC2E-FE66-45C2-A410-D52A6D343947)" transform="translate(-53 -992)"><use fill="#fefefe" xlink:href="#689hn"/></g></g></svg>