<svg xmlns="http://www.w3.org/2000/svg" width="153" height="28" viewBox="0 0 153 28">
    <path fill="#FFF" fill-rule="nonzero" d="M144.796 6.55c-2.263 0-5.173.327-5.538.327v20.385h4.487v-6.958c.654.11 1.317.164 1.98.164 4.122 0 7.275-2.742 7.275-6.917 0-4.748-3.475-7-8.204-7zm.404 10.111a4.019 4.019 0 0 1-1.455-.236v-5.78c.233-.04 1.011-.04 1.455-.04 1.98 0 3.314.982 3.314 3.028 0 1.966-1.374 3.028-3.314 3.028zm-15.274 3.447h4.325V16.17h-4.325v-5.287h5.255V6.794h-9.662v20.468h9.982v-4.093h-5.575v-3.06zM113.6 16.825V6.795h-4.404v20.467h4.404v-6.624h.808l5.173 6.624h1.869v-4.748c-.89-1.228-2.063-2.784-2.87-3.93a140.787 140.787 0 0 0 1.695-5.362l1.899-6.428h-4.615l-2.99 10.028-.969.003zm-52.411 4.994c-1.616 0-4.244-1.515-4.244-4.79 0-3.277 2.623-4.79 4.244-4.79v9.58zM45.503 0L40.09 3.151v1.72h7.032V0h-1.619zm-.525 21.492v5.772h4.437V6.794h-4.437v8.28l-2.94 3.88h-.727c.082-2.456.234-6.674.234-9.047V6.794h-4.438v20.468h2.385l4.769-5.772.717.002zM2.87 14.615c0 4.093-.535 8.145-2.87 9.004V28c5.456-.572 7.153-5.403 7.153-12.609v-4.982h2.91v16.865h4.438V6.794H2.87v7.821zm62.638-2.366c1.616 0 4.244 1.514 4.244 4.79 0 3.277-2.628 4.78-4.244 4.78v-9.57zm0 13.142c4.849 0 8.73-3.44 8.73-8.351 0-4.911-3.879-8.35-8.73-8.35V5.894h-4.32v2.782c-4.848 0-8.73 3.44-8.73 8.351 0 4.911 3.88 8.35 8.73 8.35v2.456h4.32v-2.443zM81.39 12.292c-.817-1.647-2.02-3.858-2.92-5.498h-1.94v5.61l2.546 4.257-2.898 4.954v5.65h1.94l3.27-6.222h.848l3.27 6.221h1.94v-5.649l-2.903-4.954 2.546-4.258V6.794h-1.939c-.89 1.637-2.102 3.85-2.91 5.486l-.85.012zm19.968-5.498h-6.913l-5.416 20.468h4.526l.89-3.605h6.913l.89 3.603h4.526l-5.416-20.466zm-.974 13.101h-4.97l2.063-8.637h.808l2.1 8.637zm-71.125-13.1h-6.91l-5.416 20.467h4.526l.89-3.605h6.91l.89 3.603h4.526L29.258 6.794zm-.97 13.1h-4.971l2.062-8.637h.808l2.102 8.637z"/>
</svg>
