<svg xmlns="http://www.w3.org/2000/svg" viewBox="0 0 423.65 99.74"><defs><style>.cls-1{fill:#fff;}</style></defs><title>Ресурс 12</title><g id="Слой_2" data-name="Слой 2"><g id="Layer_1" data-name="Layer 1"><polygon class="cls-1" points="168.6 57.65 190.19 57.65 190.19 40.38 199.9 40.38 199.9 82.98 190.19 82.98 190.19 65.19 168.6 65.19 168.6 82.98 158.89 82.98 158.89 40.38 168.6 40.38 168.6 57.65"/><path class="cls-1" d="M217.5,65.9c0,7.53,2.38,10.67,10.4,10.67s10.35-3.14,10.35-10.67V40.38H248V66.13c0,5.46-.65,9.2-2.7,11.45-3.79,4.16-9.32,5.88-17.35,5.88s-13.61-1.72-17.4-5.88c-2.13-2.3-2.64-6-2.64-11.45V40.38h9.64Z"/><path class="cls-1" d="M279.64,40.38,299.3,83H288.51l-4.24-10.14h-20L260.12,83H249.84l19.52-42.6ZM267.37,65.25h13.76l-7-16.37Z"/><polygon class="cls-1" points="303.71 40.38 314.37 73.14 323.36 40.38 334.8 40.38 345.14 73.14 355.09 40.38 365.05 40.38 350.79 82.98 338.9 82.98 329.07 51.19 320.48 82.98 308.65 82.98 293.29 40.38 303.71 40.38"/><path class="cls-1" d="M378.11,57.71H405v7.41H378.05c.06,7.66,3.34,10.45,11,10.45H405V83H388.58c-5.59,0-9.89-.41-14.39-3.73-4.75-3.5-7.06-9.08-7.06-16.8,0-15.05,6.88-22.07,21.71-22.07H405v7.43H389c-7,0-10.53,3.19-10.92,9.9"/><rect class="cls-1" x="413.51" y="40.38" width="10.14" height="42.6"/><path class="cls-1" d="M57,77.8a.42.42,0,0,0,.12-.49h0A302.31,302.31,0,0,0,20.27,17.57s-11.58,11-10.75,22a19.47,19.47,0,0,0,6.7,13.26c10.1,9.84,34.54,22.25,40.22,25.08C56.51,77.92,56.81,78,57,77.8Z"/><path class="cls-1" d="M53.2,86.21a.55.55,0,0,0-.52-.36v0L12,87.25c4.41,7.87,11.85,14,19.59,12.11C36.92,98,49,89.58,53,86.73h0C53.31,86.45,53.2,86.21,53.2,86.21Z"/><path class="cls-1" d="M53.82,82.56c.19-.32-.15-.6-.15-.6h0C35.8,69.89,1.16,51.39,1.16,51.39A24.1,24.1,0,0,0,15.1,81.15a25,25,0,0,0,7.78,1.7c.61.12,24.2,0,30.52,0A.54.54,0,0,0,53.82,82.56Z"/><path class="cls-1" d="M56.51,0C54.74.15,50,1.24,50,1.24A18.86,18.86,0,0,0,36.65,13.81c-2,6.15.05,12.9.05,12.9,3.59,16,21.29,42.17,25.09,47.67.27.27.49.18.49.18a.5.5,0,0,0,.37-.52h0C68.51,15.51,56.51,0,56.51,0Z"/><path class="cls-1" d="M70,74.54a.47.47,0,0,0,.59-.23h0c3.91-5.65,21.49-31.72,25.08-47.61,0,0,1.94-7.7.06-12.9A18.89,18.89,0,0,0,82.27,1.25S79.16.47,75.87,0c0,0-12.06,15.52-6.19,74.09h0A.51.51,0,0,0,70,74.54Z"/><path class="cls-1" d="M79.62,85.87a.61.61,0,0,0-.46.32.57.57,0,0,0,.16.54h0c3.89,2.8,15.7,11.05,21.39,12.65,0,0,10.52,3.58,19.65-12.11L79.62,85.86Z"/><path class="cls-1" d="M131.19,51.3S96.61,69.86,78.72,81.92h0a.52.52,0,0,0-.21.59s.17.31.42.31h0c6.4,0,30.63,0,31.25-.08a24.33,24.33,0,0,0,7-1.6,23.9,23.9,0,0,0,13.1-12.54A24.56,24.56,0,0,0,131.19,51.3Z"/><path class="cls-1" d="M75.46,77.8a.5.5,0,0,0,.54,0h0c5.83-2.89,30.08-15.23,40.13-25,0,0,6.36-5.11,6.7-13.32.73-11.39-10.73-21.93-10.73-21.93A302.43,302.43,0,0,0,75.33,77.15h0A.56.56,0,0,0,75.46,77.8Z"/></g></g></svg>