<svg xmlns="http://www.w3.org/2000/svg" xmlns:xlink="http://www.w3.org/1999/xlink" width="22" height="22" viewBox="0 0 22 22"><defs><path id="h97ca" d="M331.503 70.472c.09 1.32-.323 4.142-2.407 6.257-2.085 2.117-5.346 2.056-5.346 2.056-3.17 0-4.583-1.148-4.583-1.148 2.719.05 4.028-1.159 4.028-1.159-2.457-.292-2.73-1.834-2.73-1.834 1.472.433 2.277 0 2.277 0-3.263-1.25-3.213-3.275-3.213-3.275.353.282 1.35.473 1.35.473-.977-.726-1.35-1.542-1.35-2.288 0-.745.464-1.38.464-1.38.413.403 1.792 2.358 5.981 2.287-.231-2.166 1.42-3.235 2.769-3.235 1.35 0 2.196 1.29 2.196 1.29.443-.12 1.49-.816 1.49-.816-.423 1.149-1.369 1.844-1.369 1.844 1.057-.212 1.833-.564 1.833-.564-.464.756-1.39 1.492-1.39 1.492zM326 62c-6.075 0-11 4.925-11 11 0 6.076 4.925 11 11 11 6.076 0 11-4.924 11-11 0-6.075-4.924-11-11-11z"/></defs><g><g transform="translate(-315 -62)"><use fill="#fff" xlink:href="#h97ca"/></g></g></svg>