<svg xmlns="http://www.w3.org/2000/svg" xmlns:xlink="http://www.w3.org/1999/xlink" width="22" height="22" viewBox="0 0 22 22"><defs><path id="4lg1a" d="M379.876 69.741c-.017.287-.732 1.461-.99 1.798a68.332 68.332 0 0 0-1.083 1.504c-.168.242-.17.473-.17.473.014.057-.05.157.444.494.494.336 1.396 1.396 1.396 1.396.212.245.404.278.404.737 0 .833-.861.74-.861.74h-1.53c-.247 0-.352.056-.404.017-.054-.037-1.093-.97-1.093-.97-.654-.715-1.166-.67-1.166-.67-.518-.011-.889.409-.889 1.201 0 .583-.477.657-.477.657-.324 0-1.188.126-2.463-.541-2.457-1.39-3.947-4.648-4.007-4.779-.06-.13-.61-1.5-.823-2.02-.212-.52.362-.66.362-.66h1.827c.497 0 1.49 2.09 1.734 2.506.188.323.623 1.322.953 1.322.474 0 .296-1.607.296-1.607v-1.1c0-.489-.227-.012-.227-.012h-.397c.506-1.11 1.772-1.11 1.772-1.11h1.375c.51 0 .551.63.551.63s-.04 1.79-.031 2.44c.019.563.315.847.458.847.143 0 .258-.005.494-.446.661-1.636 1.789-3.202 1.789-3.202s.111-.252.577-.21c1.63.116 2.041.367 2.041.367s.148.03.138.198zM373 62c-6.076 0-11 4.924-11 11 0 6.075 4.925 11 11 11s11-4.925 11-11c0-6.076-4.925-11-11-11z"/></defs><g><g transform="translate(-362 -62)"><use fill="#fff" xlink:href="#4lg1a"/></g></g></svg>